<?xml version="1.0" encoding="utf-8"?>
<svg viewBox="20.454 26.231 44.094 24.826" xmlns="http://www.w3.org/2000/svg">
  <path d="M 46.10990003051758 45.10419981689453 Q 46.460600030517575 44.953899816894534 46.69440003051758 44.80359981689453 Q 46.92820003051758 44.65329981689453 47.07850003051758 44.45289981689453 Q 47.228800030517576 44.252499816894534 47.303950030517576 43.95189981689453 Q 47.37910003051758 43.65129981689453 47.41250003051758 43.20039981689453 Q 47.47930003051758 42.16499981689453 47.51270003051758 41.08784981689453 Q 47.54610003051758 40.01069981689453 47.54610003051758 38.62459981689453 L 47.54610003051758 36.35339981689453 Q 47.54610003051758 34.96729981689453 47.51270003051758 33.890149816894535 Q 47.47930003051758 32.81299981689453 47.41250003051758 31.727499816894532 Q 47.69640003051758 31.76089981689453 48.030400030517576 31.78594981689453 Q 48.36440003051758 31.81099981689453 48.781900030517576 31.81099981689453 Q 49.19940003051758 31.81099981689453 49.533400030517576 31.78594981689453 Q 49.86740003051758 31.76089981689453 50.151300030517575 31.727499816894532 Q 50.084500030517574 32.81299981689453 50.051100030517574 33.890149816894535 Q 50.01770003051758 34.96729981689453 50.01770003051758 36.35339981689453 L 50.01770003051758 38.62459981689453 Q 50.01770003051758 39.32599981689453 50.03440003051758 40.09419981689453 Q 50.051100030517574 40.86239981689453 50.051100030517574 41.66399981689453 Q 50.051100030517574 43.61789981689453 49.12425003051758 44.60319981689453 Q 48.19740003051758 45.58849981689453 46.36040003051758 45.88909981689453 L 46.10990003051758 45.10419981689453 Z M 53.02919245605469 36.35339981689453 Q 53.02919245605469 34.96729981689453 52.99579245605469 33.890149816894535 Q 52.96239245605469 32.81299981689453 52.895592456054686 31.727499816894532 Q 53.17949245605469 31.76089981689453 53.513492456054685 31.78594981689453 Q 53.84749245605469 31.81099981689453 54.264992456054685 31.81099981689453 Q 54.68249245605469 31.81099981689453 55.016492456054685 31.78594981689453 Q 55.35049245605469 31.76089981689453 55.634392456054684 31.727499816894532 Q 55.56759245605469 32.81299981689453 55.53419245605469 33.890149816894535 Q 55.50079245605469 34.96729981689453 55.50079245605469 36.35339981689453 L 55.50079245605469 38.62459981689453 Q 55.50079245605469 39.57649981689453 55.50914245605469 40.461599816894534 Q 55.51749245605469 41.34669981689453 55.53419245605469 41.997999816894534 Q 56.486092456054685 41.997999816894534 57.43799245605469 41.947899816894534 Q 58.38989245605469 41.89779981689453 59.35849245605469 41.78089981689453 Q 59.32509245605469 41.964599816894534 59.30839245605469 42.11489981689453 Q 59.29169245605469 42.26519981689453 59.29169245605469 42.53239981689453 Q 59.29169245605469 42.79959981689453 59.30839245605469 42.94989981689453 Q 59.32509245605469 43.10019981689453 59.35849245605469 43.20039981689453 Q 58.90759245605469 43.18369981689453 58.24794245605469 43.17534981689453 Q 57.58829245605469 43.16699981689453 56.435992456054684 43.16699981689453 Q 55.41729245605469 43.16699981689453 54.78269245605469 43.16699981689453 Q 54.164792456054684 43.16699981689453 53.78904245605469 43.16699981689453 Q 53.41329245605469 43.16699981689453 53.22124245605469 43.17534981689453 Q 53.02919245605469 43.18369981689453 52.895592456054686 43.20039981689453 Q 52.96239245605469 42.16499981689453 52.99579245605469 41.08784981689453 Q 53.02919245605469 40.01069981689453 53.02919245605469 38.62459981689453 L 53.02919245605469 36.35339981689453 Z" transform="matrix(1, 0, 0, 1, 0, 0)" style="stroke-width: 6px; white-space: pre;"/>
  <path style="fill: rgb(46, 121, 183);" transform="matrix(-0.146593, 0.163098, -0.163098, -0.146593, 126.630577, 78.532303)" d="M 145.632 399.507 L 155.439 399.507 L 157.509 414.486 A 26.053 26.053 0 0 1 163.355 416.908 L 175.411 407.779 L 182.346 414.714 L 173.217 426.77 A 26.053 26.053 0 0 1 175.639 432.616 L 190.618 434.685 L 190.618 444.493 L 175.639 446.563 A 26.053 26.053 0 0 1 173.217 452.409 L 182.346 464.464 L 175.411 471.399 L 163.355 462.271 A 26.053 26.053 0 0 1 157.509 464.692 L 155.439 479.671 L 145.632 479.671 L 143.562 464.692 A 26.053 26.053 0 0 1 137.716 462.271 L 125.661 471.399 L 118.726 464.464 L 127.854 452.409 A 26.053 26.053 0 0 1 125.433 446.563 L 110.453 444.493 L 110.453 434.685 L 125.433 432.616 A 26.053 26.053 0 0 1 127.854 426.77 L 118.726 414.714 L 125.661 407.779 L 137.716 416.908 A 26.053 26.053 0 0 1 143.562 414.486 Z M 150.536 427.564 A 12.025 12.025 0 0 0 150.536 451.614 A 12.025 12.025 0 0 0 150.536 427.564"/>
</svg>